<svg xmlns="http://www.w3.org/2000/svg" viewBox="0 0 1000 680" role="img" aria-labelledby="title desc"><title id="title">Paul’s Letters and the Mediterranean</title><desc id="desc">Main regions of the letters to churches</desc><style>
text{font-family:Arial,'Noto Sans KR',sans-serif;fill:#171717}.title{font-size:32px;font-weight:800}.subtitle{font-size:19px;fill:#555}.region{font-size:24px;font-weight:800}.place{font-size:17px;font-weight:700}.water{font-size:19px;font-weight:700;fill:#47778c}.note{font-size:14px;fill:#666}.legend{font-size:15px;font-weight:700}.dot{fill:#111;stroke:#fff;stroke-width:3}.land{stroke:#59636a;stroke-width:2}.route1{fill:none;stroke:#b34b3c;stroke-width:7;stroke-linecap:round;stroke-linejoin:round;marker-end:url(#arrow1)}.route2{fill:none;stroke:#216b78;stroke-width:7;stroke-linecap:round;stroke-linejoin:round;marker-end:url(#arrow2)}
</style><rect width="1000" height="680" fill="#fff"/><text class="title" x="35" y="48">Paul’s Letters and the Mediterranean</text><text class="subtitle" x="35" y="77">Main regions of the letters to churches</text>
  <rect x="0" y="210" width="1000" height="400" fill="#dcecf2"/><path d="M0 115H325L300 190 270 245 300 300 275 365 220 410H0Z" fill="#eee4cf" class="land"/><path d="M310 115H495L520 185 490 250 470 320 430 370 380 330 405 260 365 215Z" fill="#ead9bd" class="land"/><path d="M495 115H820L875 210 820 300 750 345 645 320 565 270 520 185Z" fill="#d9e7cf" class="land"/><path d="M820 300L1000 275V610H850L825 510 845 420Z" fill="#ecd7c6" class="land"/>
  <text class="water" x="500" y="485" text-anchor="middle">Mediterranean Sea</text><text class="region" x="250" y="175" text-anchor="middle">Italy</text><text class="region" x="425" y="175" text-anchor="middle">Greece</text><text class="region" x="660" y="165" text-anchor="middle">Asia Minor</text><text class="region" x="660" y="190" text-anchor="middle">(modern Turkey)</text><text class="region" x="885" y="360" text-anchor="middle">Israel</text>
  <circle class="dot" cx="235" cy="220" r="6"/><text class="place" x="222" y="226" text-anchor="end">Rome</text><circle class="dot" cx="432" cy="318" r="6"/><text class="place" x="419" y="324" text-anchor="end">Corinth</text><circle class="dot" cx="448" cy="210" r="6"/><text class="place" x="435" y="216" text-anchor="end">Thessalonica</text><circle class="dot" cx="475" cy="178" r="6"/><text class="place" x="462" y="184" text-anchor="end">Philippi</text><circle class="dot" cx="590" cy="290" r="6"/><text class="place" x="603" y="296" text-anchor="start">Ephesus</text><circle class="dot" cx="705" cy="285" r="6"/><text class="place" x="718" y="291" text-anchor="start">Colossae</text><circle class="dot" cx="650" cy="215" r="6"/><text class="place" x="663" y="221" text-anchor="start">Galatia</text><circle class="dot" cx="880" cy="420" r="6"/><text class="place" x="893" y="426" text-anchor="start">Jerusalem</text><path d="M935 142V94M935 94l-11 22M935 94l11 22" stroke="#111" stroke-width="4" fill="none"/><text class="place" x="935" y="78" text-anchor="middle">N</text><text class="note" x="500" y="657" text-anchor="middle">Study diagram · locations and distances are simplified</text></svg>